<?xml version="1.0" encoding="utf-8"?>
<!-- Generator: Adobe Illustrator 25.2.1, SVG Export Plug-In . SVG Version: 6.00 Build 0)  -->
<svg version="1.1" id="Capa_1" xmlns="http://www.w3.org/2000/svg" xmlns:xlink="http://www.w3.org/1999/xlink" x="0px" y="0px"
	 viewBox="0 0 512 512" style="enable-background:new 0 0 512 512;" xml:space="preserve">
<g transform="translate(0.000000,512.000000) scale(0.100000,-0.100000)">
	<path d="M1810,5071c-381-125-719-327-1006-604c-232-223-388-434-526-710C-223,2750-32,1564,761,769C1263,265,1960-12,2660,13
		c548,20,1015,179,1455,496c472,339,815,837,975,1415c35,128,36,147,11,203c-26,57-84,87-156,81c-44-4-64-13-119-54
		c-158-116-259-179-381-239c-283-138-527-195-839-195c-515,0-993,197-1356,559c-367,367-565,841-564,1356c1,443,131,839,380,1158
		c63,81,81,134,65,189c-23,76-93,129-168,127C1942,5109,1873,5091,1810,5071z M1526,4498c-78-187-133-397-156-598
		c-14-123-14-410,0-525c94-767,564-1432,1245-1764c314-154,585-219,940-228c356-9,626,42,964,184c57,24,106,41,109,39
		c8-8-120-213-199-319c-440-591-1099-927-1819-927c-505,0-948,147-1354,448c-275,205-510,490-669,810c-159,321-229,624-229,987
		c1,315,45,554,154,830c163,413,462,784,833,1032c71,48,212,132,222,133C1568,4600,1549,4554,1526,4498z"/>
</g>
</svg>
